<svg width="134" height="27" viewBox="0 0 134 27" fill="none" xmlns="http://www.w3.org/2000/svg">
<path d="M18.8964 8.11722C19.6199 7.49288 19.7075 6.38827 18.9818 5.76655C17.6509 4.62645 16.0709 3.80041 14.3588 3.36099C12.0852 2.7775 9.68757 2.90368 7.48783 3.72259C5.28808 4.54151 3.3916 6.01393 2.05309 7.94211C0.714582 9.87029 -0.00185475 12.1619 3.60426e-06 14.5091C0.00186196 16.8563 0.721927 19.1468 2.06349 21.0728C3.40505 22.9989 5.30386 24.4683 7.5049 25.2837C9.70593 26.0992 12.1038 26.2216 14.3764 25.6345C16.0879 25.1923 17.6666 24.3638 18.9956 23.2216C19.7204 22.5987 19.631 21.4943 18.9065 20.8711V20.8711C18.182 20.2479 17.0979 20.3487 16.3343 20.9234C15.4959 21.5544 14.5376 22.0185 13.5108 22.2838C11.9221 22.6942 10.2458 22.6087 8.70714 22.0386C7.16845 21.4686 5.84105 20.4413 4.9032 19.0949C3.96535 17.7484 3.46198 16.1472 3.46068 14.5064C3.45938 12.8655 3.96022 11.2635 4.89593 9.91556C5.83165 8.56763 7.15743 7.5383 8.6952 6.96582C10.233 6.39334 11.9091 6.30513 13.4985 6.71304C14.5256 6.97665 15.4848 7.43931 16.3242 8.06896C17.0886 8.6424 18.1729 8.74157 18.8964 8.11722V8.11722Z" fill="white"/>
<path d="M19.969 9.72486L17.4648 11.0404C16.4631 11.5666 16.4505 12.1511 16.7677 12.7549L17.7986 14.7174C18.2744 15.6232 19.6851 15.2673 20.0733 14.4855C20.1401 15.2209 19.8508 16.8497 19.6978 17.5721C19.2962 19.4687 21.8305 20.1114 22.371 18.4792C22.7417 17.3599 22.8802 15.9003 22.9032 15.3104C22.9533 12.9727 22.2785 11.0799 21.9349 10.4257C21.3639 9.33882 20.3864 9.5056 19.969 9.72486Z" fill="white"/>
<path d="M30.63 13.7C30.63 12.464 30.906 11.36 31.458 10.388C32.022 9.404 32.784 8.642 33.744 8.102C34.716 7.55 35.802 7.274 37.002 7.274C38.406 7.274 39.636 7.634 40.692 8.354C41.748 9.074 42.486 10.07 42.906 11.342H40.008C39.72 10.742 39.312 10.292 38.784 9.992C38.268 9.692 37.668 9.542 36.984 9.542C36.252 9.542 35.598 9.716 35.022 10.064C34.458 10.4 34.014 10.88 33.69 11.504C33.378 12.128 33.222 12.86 33.222 13.7C33.222 14.528 33.378 15.26 33.69 15.896C34.014 16.52 34.458 17.006 35.022 17.354C35.598 17.69 36.252 17.858 36.984 17.858C37.668 17.858 38.268 17.708 38.784 17.408C39.312 17.096 39.72 16.64 40.008 16.04H42.906C42.486 17.324 41.748 18.326 40.692 19.046C39.648 19.754 38.418 20.108 37.002 20.108C35.802 20.108 34.716 19.838 33.744 19.298C32.784 18.746 32.022 17.984 31.458 17.012C30.906 16.04 30.63 14.936 30.63 13.7ZM50.6744 9.884C51.4304 9.884 52.1024 10.052 52.6904 10.388C53.2784 10.712 53.7344 11.198 54.0584 11.846C54.3944 12.482 54.5624 13.25 54.5624 14.15V20H52.0424V14.492C52.0424 13.7 51.8444 13.094 51.4484 12.674C51.0524 12.242 50.5124 12.026 49.8284 12.026C49.1324 12.026 48.5804 12.242 48.1724 12.674C47.7764 13.094 47.5784 13.7 47.5784 14.492V20H45.0584V6.68H47.5784V11.27C47.9024 10.838 48.3344 10.502 48.8744 10.262C49.4144 10.01 50.0144 9.884 50.6744 9.884ZM56.3108 14.978C56.3108 13.97 56.5088 13.076 56.9048 12.296C57.3128 11.516 57.8588 10.916 58.5428 10.496C59.2388 10.076 60.0128 9.866 60.8648 9.866C61.6088 9.866 62.2568 10.016 62.8088 10.316C63.3728 10.616 63.8228 10.994 64.1588 11.45V10.028H66.6968V20H64.1588V18.542C63.8348 19.01 63.3848 19.4 62.8088 19.712C62.2448 20.012 61.5908 20.162 60.8468 20.162C60.0068 20.162 59.2388 19.946 58.5428 19.514C57.8588 19.082 57.3128 18.476 56.9048 17.696C56.5088 16.904 56.3108 15.998 56.3108 14.978ZM64.1588 15.014C64.1588 14.402 64.0388 13.88 63.7988 13.448C63.5588 13.004 63.2348 12.668 62.8268 12.44C62.4188 12.2 61.9808 12.08 61.5128 12.08C61.0448 12.08 60.6128 12.194 60.2168 12.422C59.8208 12.65 59.4968 12.986 59.2448 13.43C59.0048 13.862 58.8848 14.378 58.8848 14.978C58.8848 15.578 59.0048 16.106 59.2448 16.562C59.4968 17.006 59.8208 17.348 60.2168 17.588C60.6248 17.828 61.0568 17.948 61.5128 17.948C61.9808 17.948 62.4188 17.834 62.8268 17.606C63.2348 17.366 63.5588 17.03 63.7988 16.598C64.0388 16.154 64.1588 15.626 64.1588 15.014ZM72.092 12.098V16.922C72.092 17.258 72.17 17.504 72.326 17.66C72.494 17.804 72.77 17.876 73.154 17.876H74.324V20H72.74C70.616 20 69.554 18.968 69.554 16.904V12.098H68.366V10.028H69.554V7.562H72.092V10.028H74.324V12.098H72.092ZM78.6565 11.576C78.9805 11.048 79.4005 10.634 79.9165 10.334C80.4445 10.034 81.0445 9.884 81.7165 9.884V12.53H81.0505C80.2585 12.53 79.6585 12.716 79.2505 13.088C78.8545 13.46 78.6565 14.108 78.6565 15.032V20H76.1365V10.028H78.6565V11.576ZM87.8419 20.162C86.8819 20.162 86.0179 19.952 85.2499 19.532C84.4819 19.1 83.8759 18.494 83.4319 17.714C82.9999 16.934 82.7839 16.034 82.7839 15.014C82.7839 13.994 83.0059 13.094 83.4499 12.314C83.9059 11.534 84.5239 10.934 85.3039 10.514C86.0839 10.082 86.9539 9.866 87.9139 9.866C88.8739 9.866 89.7439 10.082 90.5239 10.514C91.3039 10.934 91.9159 11.534 92.3599 12.314C92.8159 13.094 93.0439 13.994 93.0439 15.014C93.0439 16.034 92.8099 16.934 92.3419 17.714C91.8859 18.494 91.2619 19.1 90.4699 19.532C89.6899 19.952 88.8139 20.162 87.8419 20.162ZM87.8419 17.966C88.2979 17.966 88.7239 17.858 89.1199 17.642C89.5279 17.414 89.8519 17.078 90.0919 16.634C90.3319 16.19 90.4519 15.65 90.4519 15.014C90.4519 14.066 90.1999 13.34 89.6959 12.836C89.2039 12.32 88.5979 12.062 87.8779 12.062C87.1579 12.062 86.5519 12.32 86.0599 12.836C85.5799 13.34 85.3399 14.066 85.3399 15.014C85.3399 15.962 85.5739 16.694 86.0419 17.21C86.5219 17.714 87.1219 17.966 87.8419 17.966ZM99.3204 20.162C98.3604 20.162 97.4964 19.952 96.7284 19.532C95.9604 19.1 95.3544 18.494 94.9104 17.714C94.4784 16.934 94.2624 16.034 94.2624 15.014C94.2624 13.994 94.4844 13.094 94.9284 12.314C95.3844 11.534 96.0024 10.934 96.7824 10.514C97.5624 10.082 98.4324 9.866 99.3924 9.866C100.352 9.866 101.222 10.082 102.002 10.514C102.782 10.934 103.394 11.534 103.838 12.314C104.294 13.094 104.522 13.994 104.522 15.014C104.522 16.034 104.288 16.934 103.82 17.714C103.364 18.494 102.74 19.1 101.948 19.532C101.168 19.952 100.292 20.162 99.3204 20.162ZM99.3204 17.966C99.7764 17.966 100.202 17.858 100.598 17.642C101.006 17.414 101.33 17.078 101.57 16.634C101.81 16.19 101.93 15.65 101.93 15.014C101.93 14.066 101.678 13.34 101.174 12.836C100.682 12.32 100.076 12.062 99.3564 12.062C98.6364 12.062 98.0304 12.32 97.5384 12.836C97.0584 13.34 96.8184 14.066 96.8184 15.014C96.8184 15.962 97.0524 16.694 97.5204 17.21C98.0004 17.714 98.6004 17.966 99.3204 17.966ZM118.755 9.884C119.979 9.884 120.963 10.262 121.707 11.018C122.463 11.762 122.841 12.806 122.841 14.15V20H120.321V14.492C120.321 13.712 120.123 13.118 119.727 12.71C119.331 12.29 118.791 12.08 118.107 12.08C117.423 12.08 116.877 12.29 116.469 12.71C116.073 13.118 115.875 13.712 115.875 14.492V20H113.355V14.492C113.355 13.712 113.157 13.118 112.761 12.71C112.365 12.29 111.825 12.08 111.141 12.08C110.445 12.08 109.893 12.29 109.485 12.71C109.089 13.118 108.891 13.712 108.891 14.492V20H106.371V10.028H108.891V11.234C109.215 10.814 109.629 10.484 110.133 10.244C110.649 10.004 111.213 9.884 111.825 9.884C112.605 9.884 113.301 10.052 113.913 10.388C114.525 10.712 114.999 11.18 115.335 11.792C115.659 11.216 116.127 10.754 116.739 10.406C117.363 10.058 118.035 9.884 118.755 9.884ZM129.048 20.162C128.232 20.162 127.5 20.018 126.852 19.73C126.204 19.43 125.688 19.028 125.304 18.524C124.932 18.02 124.728 17.462 124.692 16.85H127.23C127.278 17.234 127.464 17.552 127.788 17.804C128.124 18.056 128.538 18.182 129.03 18.182C129.51 18.182 129.882 18.086 130.146 17.894C130.422 17.702 130.56 17.456 130.56 17.156C130.56 16.832 130.392 16.592 130.056 16.436C129.732 16.268 129.21 16.088 128.49 15.896C127.746 15.716 127.134 15.53 126.654 15.338C126.186 15.146 125.778 14.852 125.43 14.456C125.094 14.06 124.926 13.526 124.926 12.854C124.926 12.302 125.082 11.798 125.394 11.342C125.718 10.886 126.174 10.526 126.762 10.262C127.362 9.998 128.064 9.866 128.868 9.866C130.056 9.866 131.004 10.166 131.712 10.766C132.42 11.354 132.81 12.152 132.882 13.16H130.47C130.434 12.764 130.266 12.452 129.966 12.224C129.678 11.984 129.288 11.864 128.796 11.864C128.34 11.864 127.986 11.948 127.734 12.116C127.494 12.284 127.374 12.518 127.374 12.818C127.374 13.154 127.542 13.412 127.878 13.592C128.214 13.76 128.736 13.934 129.444 14.114C130.164 14.294 130.758 14.48 131.226 14.672C131.694 14.864 132.096 15.164 132.432 15.572C132.78 15.968 132.96 16.496 132.972 17.156C132.972 17.732 132.81 18.248 132.486 18.704C132.174 19.16 131.718 19.52 131.118 19.784C130.53 20.036 129.84 20.162 129.048 20.162Z" fill="white"/>
</svg>
