<svg width="22" height="21" viewBox="0 0 22 21" fill="none" xmlns="http://www.w3.org/2000/svg">
<path d="M21.0112 10.5C21.0112 16.299 16.3102 21 10.5112 21C4.71224 21 0.0112305 16.299 0.0112305 10.5C0.0112305 4.70101 4.71224 0 10.5112 0C16.3102 0 21.0112 4.70101 21.0112 10.5ZM1.66233 10.5C1.66233 15.3871 5.62412 19.3489 10.5112 19.3489C15.3983 19.3489 19.3601 15.3871 19.3601 10.5C19.3601 5.61289 15.3983 1.6511 10.5112 1.6511C5.62412 1.6511 1.66233 5.61289 1.66233 10.5Z" fill="white"/>
<circle cx="5.74463" cy="7.54175" r="1.25" fill="white"/>
<circle cx="5.74463" cy="13.25" r="1.25" fill="white"/>
<path d="M9.06201 15V6H12.062C13.562 6 15.562 7.5 15.562 10.5C15.562 13.5 13.562 15 12.062 15H9.06201Z" stroke="white" stroke-width="1.5"/>
</svg>
