<svg width="16" height="21" viewBox="0 0 16 21" fill="none" xmlns="http://www.w3.org/2000/svg">
<path d="M16 8C16 12.4183 12.4183 16 8 16C3.58172 16 0 12.4183 0 8C0 3.58172 3.58172 0 8 0C12.4183 0 16 3.58172 16 8ZM1.94888 8C1.94888 11.3419 4.65806 14.0511 8 14.0511C11.3419 14.0511 14.0511 11.3419 14.0511 8C14.0511 4.65806 11.3419 1.94888 8 1.94888C4.65806 1.94888 1.94888 4.65806 1.94888 8Z" fill="white"/>
<path d="M13 16C13 18.7614 10.7614 21 8 21C5.23858 21 3 18.7614 3 16C3 13.2386 5.23858 11 8 11C10.7614 11 13 13.2386 13 16ZM4.55899 16C4.55899 17.9004 6.09958 19.441 8 19.441C9.90042 19.441 11.441 17.9004 11.441 16C11.441 14.0996 9.90042 12.559 8 12.559C6.09958 12.559 4.55899 14.0996 4.55899 16Z" fill="white"/>
</svg>
